PathFileType	4	(X/Y/Z)	C:/Users/beibeiliu/ov580/test_trc/User3\sequence.15_training_dense_right.trc
DataRate	CameraRate	NumFrames	NumMarkers	Units	OrigDataRate	OrigDataStartFrame	OrigNumFrames
120	120	8	19	mm	120	118	234
Frame#	Time	ThumbCMC			ThumbMCP			ThumbIP			ThumbTip			IndexMCP			IndexPIP			IndexTip			MiddleMCP			MiddlePIP			MiddleTip			RingMCP			RingPIP			RingTip			PinkyMCP			PinkyPIP			PinkyTip			BackHand1			BackHand2			BackHand3	
		X0	Y0	Z0	X1	Y1	Z1	X2	Y2	Z2	X3	Y3	Z3	X4	Y4	Z4	X5	Y5	Z5	X6	Y6	Z6	X7	Y7	Z7	X8	Y8	Z8	X9	Y9	Z9	X10	Y10	Z10	X11	Y11	Z11	X12	Y12	Z12	X13	Y13	Z13	X14	Y14	Z14	X15	Y15	Z15	X16	Y16	Z16	X17	Y17	Z17	X18	Y18	Z18	
117	0.975	131.33	-20.1409	18.595	115.504	-31.1249	-8.18855	113.611	-37.5201	-37.1393	114.236	-46.2268	-62.1023	142.341	0.224249	-54.0973	134.178	-21.805	-74.6902	133.736	-53.3162	-72.8517	170.067	9.5328	-54.8641	167.493	6.95742	-80.4531	165.434	-4.94326	-113.992	193.484	0.751721	-44.7519	196.423	2.33822	-69.5016	198.148	-0.784822	-98.8645	212.734	-15.6758	-30.5128	220.638	-16.2182	-44.7859	232.503	-15.2233	-68.1629	187.424	0.856993	5.94896	190.285	-6.7024	38.028	157.281	7.11781	17.4996	
118	0.983333	128.995	-21.2434	19.9542	119.338	-35.9025	-10.6874	111.402	-47.4096	-34.4105	116.929	-58.0148	-57.9903	145.961	-11.3038	-53.0651	137.431	-36.0202	-73.773	133.842	-67.5929	-67.6865	172.317	-3.73252	-55.1046	171.03	-9.62967	-83.8877	171.458	-26.3418	-113.869	196.878	-10.7234	-48.7694	201.614	-13.7834	-74.4572	201.167	-19.0795	-98.7082	211.391	-26.1145	-26.0224	226.787	-29.8289	-46.9551	234.583	-29.8533	-62.955	190.838	-3.52398	6.5374	191.042	-6.67249	35.6769	159.987	5.62106	14.0684	
119	0.991667	130.338	-24.177	17.9066	118.555	-41.4596	-8.06637	114.566	-55.0469	-31.4653	118.389	-70.0523	-51.3133	147.474	-22.0324	-53.115	142.226	-51.1988	-71.0362	137.096	-79.0643	-61.9293	175.327	-15.2961	-60.1095	174.089	-26.279	-86.0602	174.656	-45.0587	-109.626	194.736	-21.3999	-45.755	203.678	-28.3702	-73.2749	203.689	-37.385	-94.1934	214.168	-35.536	-22.5088	225.49	-40.2883	-44.8598	237.062	-43.2004	-60.8699	189.394	-9.22651	5.71909	188.969	-5.2261	31.4369	157.624	1.04815	11.9148	
120	1	129.298	-24.8581	18.7965	117.248	-45.5354	-8.31901	115.616	-63.0084	-29.566	118.951	-79.1179	-46.1965	150.476	-36.1329	-56.0445	140.802	-62.7339	-67.3404	138.53	-89.3516	-56.1932	174.436	-27.0638	-60.8746	176.786	-39.7241	-82.5474	174.464	-61.5877	-108.437	197.089	-31.6278	-44.9659	205.175	-39.4525	-68.2534	208.505	-53.3102	-90.8861	214.867	-43.5882	-21.0699	225.605	-49.9184	-37.4222	238.973	-55.7009	-56.8218	190.029	-13.1443	0.27314	188.67	-5.27895	33.4197	160.367	-0.180727	9.44375	
121	1.00833	129.29	-26.9465	18.0501	117.542	-49.5565	0.374513	115.646	-70.2394	-26.4877	118.784	-88.146	-40.4949	151.178	-43.0013	-51.7655	139.247	-74.7323	-61.8641	137.101	-101.036	-47.358	178.899	-36.3716	-55.2749	176.13	-50.831	-80.9892	175.331	-79.1474	-104.927	199.899	-39.9504	-42.8546	205.949	-52.0753	-67.7858	205.857	-66.5619	-90.5206	215.074	-49.7198	-21.2347	224.149	-57.1117	-36.3961	239.728	-66.1182	-52.3568	191.461	-16.6429	0.876864	191.574	-9.36488	30.4758	163.2	-6.24968	7.36734	
122	1.01667	128.067	-27.7703	18.3334	115.833	-52.7375	1.5877	114.182	-73.93	-19.6963	121.534	-92.5175	-35.1839	146.926	-51.1389	-51.0791	138.146	-82.1589	-57.4401	132.954	-103.259	-43.7299	175.641	-42.6052	-53.8099	176.15	-61.5154	-76.9594	170.604	-89.3402	-99.1861	198.725	-46.9131	-42.872	203.373	-59.5322	-65.647	207.096	-78.438	-85.7793	212.144	-54.452	-22.7318	222.39	-63.4053	-33.1738	239.909	-78.0124	-48.6293	193.557	-19.5082	-0.10985	192.447	-8.87465	32.6541	158.391	-4.44289	9.02079	
123	1.025	127.97	-26.2473	22.3189	114.045	-53.4859	2.17173	112.549	-73.7818	-13.4116	113.18	-97.5308	-28.8502	144.67	-53.9223	-48.2074	134.798	-83.1258	-54.1217	131.792	-110.894	-34.8019	174.96	-49.5713	-53.2217	171.349	-70.0436	-75.9776	165.622	-96.4857	-93.1051	196.077	-51.8022	-43.2345	199.435	-66.0666	-63.1819	203.295	-85.595	-79.7701	212.955	-57.1721	-15.6204	225.564	-72.1696	-31.6891	237.937	-83.2078	-44.5709	193.603	-21.8969	1.74517	191.875	-7.7645	30.1184	159.177	-7.1299	8.74484	
124	1.03333	130.666	-26.0825	22.9509	114.786	-49.3797	8.073	108.201	-74.4111	-10.002	113.083	-95.3533	-22.2483	142.197	-57.3394	-46.5008	131.947	-85.6245	-49.5641	124.473	-108.444	-31.7039	168.887	-53.5718	-54.1105	169.635	-72.7219	-70.4033	162.737	-103.46	-88.1241	194.547	-57.3511	-38.5138	198.526	-71.8119	-58.6018	197.03	-92.6419	-77.7904	212.87	-63.189	-15.6331	221.942	-77.6615	-28.348	230.872	-89.7196	-41.2178	190.153	-25.1033	1.5871	189.146	-8.12482	29.7744	158.267	-7.30498	8.08855	
